<svg version="1.1" id="Layer_1" xmlns="http://www.w3.org/2000/svg" xmlns:xlink="http://www.w3.org/1999/xlink" x="0px" y="0px"
	 width="100%" viewBox="0 0 496 496" enable-background="new 0 0 496 496" xml:space="preserve">
<path fill="#000000" opacity="1.000000" stroke="none" 
	d="
M98.377777,137.531555 
	C105.922264,105.245010 122.661316,78.936951 146.651672,57.028316 
	C149.108612,54.784573 150.578812,52.563194 151.052109,49.097321 
	C153.229858,33.150120 171.658417,22.809715 185.423264,30.176582 
	C188.514618,31.831064 191.303757,31.713959 194.457794,30.479483 
	C263.818390,3.331982 344.450409,32.269398 381.522858,96.575737 
	C404.297089,136.080200 408.453094,177.859970 394.859039,221.346634 
	C391.022827,233.618591 390.946228,234.116974 400.919891,241.942856 
	C402.660706,243.308807 404.093109,244.849548 405.084656,246.833832 
	C414.092346,264.859619 423.153992,282.859406 431.275848,301.310455 
	C431.925201,302.785675 432.956696,304.256439 431.872345,306.277069 
	C429.022339,306.951263 427.438660,304.713409 425.775452,303.087738 
	C415.524689,293.068085 405.942413,282.419678 396.481598,271.658844 
	C394.243256,269.112915 392.167297,266.338715 388.881226,264.374664 
	C387.457092,267.573334 389.097198,269.745056 389.854462,271.977386 
	C391.350403,276.387390 393.045868,280.729340 394.599487,285.120422 
	C395.092590,286.514160 395.836060,288.214600 394.318451,289.259613 
	C392.475250,290.528809 391.212036,288.798584 390.081207,287.704529 
	C386.489899,284.229858 383.003632,280.646606 379.475739,277.106354 
	C376.908752,274.530334 374.671448,274.751923 372.410492,277.650024 
	C367.690918,283.699646 362.561768,289.397675 356.898376,294.584808 
	C354.540771,296.744171 353.942291,298.355865 356.674530,301.044342 
	C363.745880,308.002533 370.937714,314.684937 375.298920,324.183014 
	C378.244476,330.598022 385.558289,333.950226 391.112396,338.434052 
	C401.222473,346.595886 411.479919,354.574951 421.628815,362.689117 
	C423.531525,364.210358 425.741608,365.660858 425.604370,368.642639 
	C423.636841,370.437012 421.209381,370.051819 418.933228,370.052277 
	C307.451202,370.074738 195.969193,370.077454 84.487198,370.027374 
	C81.985100,370.026245 78.429726,371.019165 77.472313,367.934967 
	C76.561562,365.001068 79.307396,362.731201 81.468605,360.952515 
	C88.683342,355.014832 96.424477,349.761810 104.415108,344.968506 
	C110.252167,341.467072 114.598129,336.997955 117.056801,330.711121 
	C120.381607,322.209595 128.434860,318.892303 135.219635,314.279602 
	C137.974380,312.406738 140.489944,315.090057 143.062027,316.105103 
	C145.787872,317.180725 148.517822,321.084595 151.584732,316.544647 
	C155.657455,310.515839 155.591690,307.992981 151.189270,304.001923 
	C147.983139,301.095337 144.610123,298.356934 141.569855,295.287659 
	C138.344101,292.031128 135.260529,291.281433 131.579193,294.496307 
	C130.395065,295.530396 129.071060,296.837189 126.882545,295.976257 
	C125.843307,292.558624 127.594147,289.500916 129.067963,286.722168 
	C131.485901,282.163422 129.222427,279.406097 126.064774,276.924500 
	C122.552475,274.164215 120.507599,277.496887 118.514290,279.379364 
	C107.365631,289.908264 95.928207,300.102356 84.037437,309.783752 
	C82.452507,311.074219 81.034096,313.075226 78.224831,311.948486 
	C77.504913,308.644928 79.680977,306.285461 81.205292,303.906952 
	C89.023651,291.707520 97.010254,279.615936 104.929550,267.481140 
	C105.657555,266.365570 106.295464,265.191162 107.026024,264.077393 
	C112.153992,256.259583 113.468307,249.066452 108.718544,239.679184 
	C97.813187,218.126251 93.329559,194.727051 93.893814,170.519165 
	C94.150101,159.524399 95.461304,148.613953 98.377777,137.531555 
M215.018295,121.459572 
	C212.681854,117.233192 210.366547,112.994949 208.002075,108.784309 
	C206.212357,105.597183 204.950607,101.487106 201.859558,99.855492 
	C196.978806,97.279175 199.423676,94.748993 201.128693,92.376846 
	C203.092636,89.644424 205.783386,87.631699 209.425812,89.004791 
	C210.776657,87.332031 211.101212,85.850525 209.893372,83.996468 
	C204.614868,85.201370 200.932785,89.160370 196.862762,92.100983 
	C195.389542,90.963631 195.676422,89.704384 195.710739,88.607307 
	C196.206757,72.753769 202.318192,59.621044 214.749878,49.584400 
	C219.642685,45.634205 225.325409,43.847851 231.502045,44.387081 
	C240.092880,45.137077 246.131363,49.761864 249.101700,57.862007 
	C252.449173,66.990547 252.087753,75.784279 245.892685,83.860466 
	C242.478378,88.311523 237.748917,90.395264 231.928207,91.671242 
	C240.445541,94.774521 249.793015,90.474159 253.554855,82.383614 
	C258.542603,71.656487 259.611206,61.144318 254.480682,49.838387 
	C248.233719,36.072132 234.980972,29.548227 220.568420,34.045933 
	C211.666855,36.823826 204.731125,41.824978 199.311035,49.452484 
	C194.251343,56.572838 191.207214,64.606598 188.078140,72.554398 
	C186.491608,76.584145 184.467285,81.200424 187.467743,85.917664 
	C185.019058,87.065269 182.689621,88.156982 179.941147,89.445091 
	C182.466019,91.994774 181.923874,94.055511 180.338669,96.419052 
	C176.887589,101.564583 174.327118,107.227287 172.710098,113.181061 
	C171.245071,118.575279 169.436508,123.286797 163.143951,124.410835 
	C163.060013,124.425835 163.072128,124.978508 163.039200,125.282036 
	C166.374557,128.141174 168.310654,123.997063 171.492050,123.489716 
	C174.350296,129.184784 167.908401,129.767563 166.380569,133.037506 
	C167.093369,133.559280 168.004379,134.007553 168.621796,134.712814 
	C173.395813,140.166168 174.889404,140.018967 177.121826,133.214554 
	C178.406509,129.298935 181.051468,128.256424 184.678665,128.039810 
	C186.496109,134.411880 185.922638,141.203247 188.617386,146.821320 
	C191.162231,147.292206 191.750732,144.520691 194.291351,145.460907 
	C192.989838,153.678864 191.674850,161.981812 190.186005,171.382599 
	C185.951645,166.250778 184.908340,160.683350 181.219604,156.583252 
	C180.385574,168.032562 178.610077,179.526917 186.016815,189.715164 
	C188.960800,193.764725 191.429962,198.052628 193.691116,202.543503 
	C199.362701,213.807800 199.675629,226.318726 202.322113,238.255829 
	C204.899551,249.881348 199.647690,260.252502 192.579010,268.560486 
	C186.799561,275.353180 182.052872,282.233917 179.489532,290.590057 
	C177.917953,295.713196 175.056686,299.277222 170.333298,301.793427 
	C164.744400,304.770630 160.049438,308.346954 157.153198,314.726807 
	C151.255814,327.717621 152.989548,325.344238 142.025986,320.262604 
	C141.270462,319.912445 140.501633,319.583282 139.775711,319.178497 
	C137.953659,318.162506 136.292480,318.397888 134.677048,319.659363 
	C128.292465,324.644928 121.204826,328.872284 118.251617,337.193878 
	C116.960075,340.833221 114.249512,343.659180 110.920013,345.803436 
	C104.486084,349.946899 98.002457,354.025177 91.741547,358.418518 
	C89.718056,359.838409 85.949471,360.998383 86.787979,363.926056 
	C87.687561,367.066925 91.415024,365.638336 93.875748,365.641388 
	C156.027847,365.717804 218.180054,365.705322 280.332245,365.699493 
	C322.322418,365.695526 364.312622,365.691010 406.302734,365.634125 
	C408.828918,365.630707 411.711731,366.342377 413.668030,363.360260 
	C412.507660,360.651550 410.108795,359.105194 407.926025,357.370178 
	C398.407654,349.804230 388.842743,342.295990 379.384735,334.655457 
	C375.894257,331.835632 372.002014,329.063995 370.442291,324.732513 
	C367.778717,317.335602 362.381470,312.249512 357.030884,306.981140 
	C354.955566,304.937653 353.004242,304.490021 350.333008,305.650574 
	C342.853668,308.899902 335.275787,311.922272 327.795837,315.170258 
	C323.996460,316.820068 321.141418,316.038910 318.635895,312.756042 
	C315.099487,308.122467 311.267639,303.714050 307.741730,299.072906 
	C305.552277,296.190948 303.225098,293.831665 299.406799,293.290497 
	C295.949463,292.800446 294.738129,290.231750 296.127197,287.449554 
	C297.857758,283.983337 297.461639,280.801025 296.766449,277.309845 
	C295.622253,271.564117 295.490540,265.794159 296.488892,259.941711 
	C297.524780,253.869080 297.349518,248.213898 293.426270,242.520264 
	C289.154572,236.320908 288.924652,228.651459 290.411652,221.262543 
	C291.789612,214.415359 293.807587,207.695206 295.134308,200.839890 
	C296.910065,191.664139 295.676025,183.006241 290.043701,175.151764 
	C285.076965,168.225494 278.532501,163.835800 270.494904,161.226303 
	C256.965851,156.833939 242.553009,154.019958 233.465775,141.261414 
	C232.455582,139.843094 230.689819,138.841278 229.093353,137.983337 
	C222.473587,134.425919 218.033524,129.050644 215.018295,121.459572 
M298.244354,166.729126 
	C297.383209,172.191772 299.782074,176.474457 303.367432,180.188126 
	C307.778229,184.756744 309.467651,190.016998 309.608917,196.425644 
	C309.847931,207.265915 309.913208,218.049515 308.389221,228.801468 
	C307.970581,231.754761 308.587860,234.321869 310.625946,236.657562 
	C320.699402,248.202179 330.682190,259.825897 340.734802,271.388794 
	C341.664520,272.458221 342.517334,273.874756 344.379425,273.591858 
	C345.435242,271.628967 344.174377,270.009399 343.534790,268.394653 
	C341.512177,263.288422 339.924561,257.886902 337.105774,253.245010 
	C331.470093,243.964310 331.382416,235.531784 338.255615,226.831055 
	C342.198425,221.839905 344.229187,216.092590 340.226471,209.902618 
	C340.136963,209.764191 340.474731,209.349472 340.700928,208.882462 
	C349.317871,212.136063 350.345276,201.452866 356.567719,199.922699 
	C357.807526,202.173019 357.299011,204.379700 357.114655,206.452225 
	C356.259644,216.063965 355.690094,225.721420 353.731903,235.194809 
	C353.107971,238.213364 353.504547,240.564743 355.609650,242.977066 
	C364.698273,253.392151 373.610229,263.961243 382.617798,274.447418 
	C383.550079,275.532745 384.352692,276.983063 386.994629,276.619751 
	C385.176605,266.969116 379.316315,258.856323 376.502472,248.734192 
	C394.690796,258.819550 404.232391,276.926270 419.638855,288.620056 
	C415.482788,276.301239 409.407501,265.115356 403.867798,253.671646 
	C401.594391,248.975311 398.649261,245.268005 394.172272,242.665909 
	C390.178680,240.344788 387.318878,237.012329 385.252899,232.836716 
	C378.681793,219.555923 371.969360,206.345047 365.307983,193.108948 
	C362.404114,187.339050 360.625702,186.920349 355.479126,190.778488 
	C351.041656,194.105026 350.474152,193.987839 348.257324,189.116043 
	C347.292145,186.994934 346.433868,184.825424 345.508484,182.685913 
	C338.634430,166.792953 331.753845,150.902863 324.880432,135.009644 
	C323.698364,132.276382 322.419495,129.356750 318.756927,131.718582 
	C314.962128,134.165695 313.639862,132.193237 312.155304,128.996078 
	C302.477966,108.154678 292.700653,87.359482 282.877777,66.586182 
	C281.276367,63.199558 279.848419,59.651150 277.223907,56.783489 
	C270.857635,63.162506 260.610687,84.984535 261.481964,90.522400 
	C267.417297,84.509666 269.021942,75.841530 274.576904,69.685722 
	C276.718323,71.617249 276.185242,73.558250 276.208862,75.309563 
	C276.278595,80.473434 276.442596,85.650124 276.165314,90.800026 
	C275.951996,94.760582 277.119873,97.078758 280.927673,98.953835 
	C290.178436,103.509171 293.831543,111.376175 292.362183,121.675247 
	C291.571198,127.219612 289.530609,132.372589 286.541138,136.973755 
	C283.363312,141.864883 284.006348,145.454727 287.881897,149.724930 
	C292.167419,154.446808 297.173615,158.970535 298.244354,166.729126 
M278.636597,31.929369 
	C270.769348,30.536383 262.887543,29.237448 254.865402,29.286070 
	C252.967682,29.297567 250.535294,28.538849 249.602280,30.965326 
	C248.775696,33.114918 250.850769,34.215141 252.115219,35.413658 
	C256.324707,39.403671 259.206055,44.202072 261.040527,49.652611 
	C261.622284,51.381084 261.916931,53.205704 262.489502,54.937889 
	C263.052856,56.642193 263.314056,58.862568 265.309753,59.354996 
	C267.516144,59.899410 268.363129,57.722527 269.362366,56.279377 
	C270.971497,53.955338 272.359802,51.479019 273.951752,49.142231 
	C275.027313,47.563450 275.759277,45.509216 278.016357,45.324276 
	C279.947266,46.073597 280.309753,47.852509 281.080109,49.269718 
	C292.292542,69.897392 302.209351,91.171463 312.421173,112.297226 
	C314.734406,117.082764 317.360321,121.058395 323.640167,120.084892 
	C325.655579,119.772453 326.631622,121.390625 327.295929,122.930336 
	C329.996124,129.188995 333.302704,135.135269 336.357971,141.208130 
	C338.471436,145.409012 341.617767,147.250061 345.590271,147.778992 
	C356.835327,149.276245 368.168274,149.174988 379.487793,148.772797 
	C384.048706,148.610733 386.761688,145.636047 387.228973,141.620407 
	C387.717590,137.421005 387.880463,132.969376 386.199951,128.820679 
	C382.277283,119.136963 378.079681,109.398857 373.014130,100.441177 
	C352.269257,63.756840 319.997314,42.095139 278.636597,31.929369 
M143.500107,148.705429 
	C152.322723,148.424316 161.201996,149.286560 170.574265,148.017334 
	C168.324066,144.052994 165.829224,141.506058 162.863815,139.315826 
	C157.813217,135.585495 155.507965,130.548752 155.587845,124.232338 
	C155.642456,119.915070 157.274292,116.101471 158.782501,112.251846 
	C160.263245,108.472275 160.212280,105.352287 157.030380,102.297943 
	C155.032639,100.380295 153.372345,97.893517 152.216614,95.362541 
	C149.950089,90.399033 147.613190,85.433685 151.823807,79.981796 
	C154.129761,76.996048 152.300201,73.771599 149.861526,71.545570 
	C146.931870,68.871361 144.639709,71.168968 142.624451,73.229843 
	C123.743416,92.538200 111.752182,115.556114 105.940987,141.842377 
	C104.667595,147.602402 105.547089,148.619324 111.530441,148.673950 
	C121.852875,148.768173 132.176788,148.700241 143.500107,148.705429 
M143.550507,177.306778 
	C139.563828,176.780548 134.976105,178.523682 131.583374,174.596390 
	C133.535767,172.127090 135.867615,172.745148 137.903137,172.721909 
	C147.230392,172.615341 156.559982,172.713226 165.887268,172.607849 
	C170.765076,172.552750 173.183426,170.249847 173.707214,165.391693 
	C173.902863,163.577087 173.627502,161.705917 173.879807,159.904327 
	C174.589249,154.838409 171.744537,153.388870 167.455429,153.381989 
	C147.632950,153.350159 127.810417,153.340103 107.987900,153.344498 
	C106.508484,153.344818 104.511765,153.136276 104.049614,154.802185 
	C102.714363,159.615494 102.365326,164.579987 102.252365,169.592834 
	C102.179337,172.833771 105.803917,172.260651 106.740730,174.996414 
	C99.698250,178.739746 102.985924,184.965271 103.329163,190.613510 
	C103.339241,190.779251 103.378944,190.942947 103.395416,191.108551 
	C103.770309,194.879120 105.727272,196.681107 109.638573,196.625381 
	C118.297981,196.501938 126.961594,196.658707 135.620438,196.515976 
	C144.300690,196.372894 152.902435,195.747513 160.858795,191.621948 
	C163.777618,190.108505 166.255463,188.409821 167.347198,185.124466 
	C169.089981,179.879898 167.582306,177.514648 162.026291,177.377502 
	C156.199356,177.233673 150.366608,177.324371 143.550507,177.306778 
M138.271500,240.777405 
	C144.128632,234.913269 148.143265,227.602158 153.353500,220.626999 
	C157.208969,237.083298 148.106888,248.762405 139.560684,260.799683 
	C143.762756,261.608398 145.239822,257.899170 148.940353,258.937408 
	C145.313324,268.045532 138.865997,275.590088 135.421509,284.769012 
	C138.392563,285.392609 139.380356,283.530029 140.676559,282.414795 
	C153.041748,271.776276 165.345093,261.065796 177.723419,250.442703 
	C179.608154,248.825226 180.926559,247.055634 180.905228,244.525742 
	C180.808594,233.071487 183.735519,222.534958 190.273026,213.048325 
	C192.308350,210.094849 190.887619,207.262360 189.572845,204.564926 
	C187.509155,200.330933 185.399918,200.137695 182.879700,204.046844 
	C179.453278,209.361618 176.260818,214.826736 172.881836,220.172913 
	C171.877762,221.761551 171.398026,223.935913 168.524170,224.496338 
	C165.879868,220.239899 163.122559,215.926514 160.496048,211.534897 
	C158.330887,207.914673 156.133942,207.879181 153.683609,211.189606 
	C151.505066,214.132797 149.381195,217.119751 147.113297,219.992767 
	C142.789368,225.470505 140.202179,232.963272 134.275436,236.338837 
	C127.597389,240.142288 124.406631,245.679260 121.028908,251.799927 
	C113.283211,265.835724 102.842224,278.062866 93.980057,291.356293 
	C92.753784,293.195740 91.009987,294.865662 91.130478,297.465881 
	C93.424133,297.513519 94.320114,295.917084 95.495216,294.835785 
	C101.743484,289.086273 107.746681,283.049622 114.236694,277.590210 
	C119.620995,273.060944 123.289940,267.718323 126.075699,261.258942 
	C129.124329,254.190094 130.933472,246.200500 138.271500,240.777405 
M235.362503,84.773239 
	C243.180832,80.981331 246.955902,71.355965 244.368332,61.810848 
	C241.878067,52.624607 233.920212,48.180092 224.751526,50.997345 
	C214.208572,54.236870 209.008942,62.636585 205.098465,72.044144 
	C203.570801,75.719315 205.915024,76.856705 209.199341,76.589607 
	C210.971893,76.445450 213.318207,75.090645 214.356812,76.813446 
	C217.286987,81.673912 223.027695,81.019394 226.969254,83.834915 
	C229.131424,85.379387 231.930405,85.636993 235.362503,84.773239 
M277.290253,138.811493 
	C280.640625,133.256409 284.158997,127.783875 285.767090,121.380516 
	C287.226318,115.570045 284.791901,109.200127 279.735931,105.625801 
	C275.017639,102.290222 268.538147,102.289505 263.829193,105.624069 
	C258.741547,109.226791 256.616333,115.297745 258.240021,121.440796 
	C260.322052,129.317963 264.911713,135.890549 269.219513,142.605591 
	C270.912384,145.244415 272.827637,145.319962 274.704437,142.756866 
	C275.489105,141.685257 276.168457,140.536514 277.290253,138.811493 
M180.719284,34.636120 
	C172.650543,32.422199 168.505600,33.544132 164.573273,39.457924 
	C162.549896,42.500908 161.064301,45.877869 160.336945,49.529751 
	C157.730804,62.614937 162.258270,74.114906 168.405136,85.191055 
	C169.192581,86.609993 170.339050,87.736679 169.869827,89.722717 
	C175.914551,83.985619 175.995621,83.946091 172.544495,76.868774 
	C168.973709,69.546059 166.843781,62.016312 167.620789,53.736958 
	C168.626831,43.016838 176.680420,37.803875 186.582840,41.698372 
	C187.468704,42.046772 188.383148,42.734783 189.561707,41.365913 
	C188.231796,37.605389 184.535919,36.621670 180.719284,34.636120 
M108.509750,214.735764 
	C113.325623,222.830093 121.044632,220.891388 128.192917,220.150635 
	C134.273132,219.520554 137.149765,215.021835 138.884674,209.648560 
	C140.860413,203.529404 139.590515,201.630966 133.155090,201.610413 
	C127.497612,201.592331 121.839813,201.925735 116.181160,201.966644 
	C106.792542,202.034531 105.536758,203.580475 107.839577,212.573120 
	C107.963409,213.056671 108.125786,213.530350 108.509750,214.735764 
M220.155548,116.382050 
	C221.107605,117.585777 222.223053,118.644295 223.828461,118.675331 
	C227.074661,118.738098 229.278076,116.892540 230.198074,114.035217 
	C231.589355,109.714119 236.231506,105.962631 232.880585,100.710808 
	C232.555420,100.201202 231.869888,99.783966 231.268784,99.609886 
	C226.776932,98.308945 223.390686,95.600304 220.634995,91.865707 
	C218.923584,89.546356 217.101807,89.758270 215.597580,92.310959 
	C212.757248,97.130997 211.336151,101.912140 214.880585,107.123772 
	C216.735062,109.850548 218.125290,112.893059 220.155548,116.382050 
M237.308441,133.759766 
	C244.154388,121.846939 248.280807,108.699776 255.078690,95.857109 
	C250.495712,96.834709 247.501251,98.573944 245.638657,101.910629 
	C240.953186,110.304306 236.308228,118.721237 231.726486,127.171921 
	C229.262817,131.715942 231.194214,134.349640 237.308441,133.759766 
M374.784668,155.230118 
	C371.223999,154.997818 367.656860,154.678284 363.263855,155.651352 
	C366.422363,158.347733 368.734528,160.486328 369.833740,163.774841 
	C370.540802,165.890152 372.820282,166.306656 374.887604,165.140167 
	C377.599243,163.610092 377.956726,158.003906 374.784668,155.230118 
z"/>
<path fill="#000000" opacity="1.000000" stroke="none" 
	d="
M398.989105,385.974731 
	C402.819122,385.981934 406.151978,386.015533 409.484406,385.990570 
	C412.711548,385.966400 414.335510,387.241852 414.333344,390.751892 
	C414.330475,395.448944 414.241760,399.707764 410.657806,403.651886 
	C408.068878,406.501038 406.876892,410.635712 405.135681,414.232819 
	C404.131073,416.308258 403.961456,418.347961 405.671875,420.272491 
	C406.190002,420.855469 406.452423,421.736877 406.645020,422.527161 
	C408.915588,431.844238 406.541260,434.923157 397.105225,434.931122 
	C377.441956,434.947723 357.778717,434.950592 338.115448,434.973450 
	C328.796082,434.984314 328.348633,435.456482 328.340576,444.965729 
	C328.339478,446.298859 328.234741,447.642670 328.364960,448.963104 
	C328.744110,452.807281 327.891327,455.116302 323.258057,455.548218 
	C319.352814,455.912231 317.803040,462.963776 320.138855,467.861237 
	C320.634247,468.899963 321.343414,469.883575 321.611206,470.976593 
	C323.951385,480.527740 321.829803,483.289001 312.187622,483.260559 
	C308.526398,483.249756 304.690918,483.754242 301.247894,482.842133 
	C296.741455,481.648315 300.436035,476.367493 297.918304,473.894165 
	C296.493011,473.446198 296.120575,474.543427 295.579865,475.324219 
	C289.191284,484.549072 277.943787,486.884766 268.426636,480.576630 
	C265.635498,478.726532 263.790710,478.547729 260.927246,480.417206 
	C253.616608,485.189941 245.861267,485.311371 238.211212,481.081512 
	C236.014374,479.866913 234.252625,479.249146 231.799789,480.649567 
	C222.753265,485.814667 213.972458,485.083618 205.454865,478.669373 
	C201.768463,480.716461 198.165314,483.010376 193.792587,483.740692 
	C179.699310,486.094513 170.126999,475.596100 174.199493,461.965302 
	C174.586288,460.670746 175.144791,459.544067 174.745392,458.166870 
	C172.840500,451.598572 173.542404,445.427795 177.039902,439.428497 
	C178.722931,436.541595 176.810760,434.475891 172.666870,434.506012 
	C168.507004,434.536255 164.306183,435.276154 160.197571,434.898041 
	C144.313400,433.436371 128.448685,436.205261 112.602165,434.924072 
	C106.712433,434.447906 100.973892,434.668427 95.080627,435.071350 
	C81.236534,436.017822 74.661324,427.498444 77.936409,413.797333 
	C78.385139,411.920074 78.411804,410.345276 78.028381,408.500885 
	C74.584679,391.935791 85.317261,382.114960 101.528053,387.147644 
	C104.164810,387.966278 106.006981,386.413696 108.202972,386.371826 
	C121.181740,386.124268 134.230438,385.024384 147.101868,386.937927 
	C151.030258,387.521942 154.196518,385.983917 157.750900,385.988434 
	C166.082886,385.999054 174.416794,386.106354 182.746048,385.957581 
	C186.770233,385.885712 188.695557,387.378815 188.310455,391.527374 
	C188.188004,392.846497 188.309479,394.191895 188.367172,395.523224 
	C188.453354,397.512177 189.109024,399.154510 191.307953,399.587036 
	C193.586472,400.035248 194.561340,398.552551 195.417648,396.778839 
	C200.688065,385.862000 211.983582,382.158173 222.450226,388.384674 
	C225.869247,390.418579 228.279022,390.496216 231.406464,388.267883 
	C234.477585,386.079681 238.220551,385.555634 241.933136,385.768768 
	C261.741882,386.905792 281.548370,385.492645 301.359802,385.808624 
	C321.352142,386.127533 341.377594,385.345734 361.340302,386.188690 
	C373.770233,386.713562 386.111053,385.383820 398.989105,385.974731 
M310.590881,428.881409 
	C314.264313,428.950867 314.963654,426.566986 314.970459,423.592102 
	C314.985687,416.932007 315.005096,410.271881 315.037262,403.611847 
	C315.046906,401.618774 314.846008,399.520630 316.128235,397.831482 
	C317.274475,396.321472 317.907715,394.919067 316.205536,393.514160 
	C314.172638,391.836273 311.892273,391.806885 309.703186,393.137756 
	C307.959381,394.197937 307.453156,395.507355 308.357697,397.740479 
	C310.156952,402.182434 309.348053,406.818665 309.169800,411.910553 
	C306.951324,410.476562 306.747406,408.902405 306.195740,407.540802 
	C304.572571,403.534363 303.122681,399.451538 301.346436,395.515259 
	C299.866821,392.236450 296.916748,391.557495 293.750916,392.480469 
	C290.195129,393.517181 291.780701,396.198883 291.908325,398.647461 
	C292.331787,406.773438 292.876465,414.935455 291.680389,423.037231 
	C291.380829,425.066315 290.468872,427.087891 292.748413,428.308197 
	C294.415131,429.200378 296.357483,429.083527 297.977020,427.950195 
	C300.087067,426.473602 299.295105,424.726562 298.650391,422.663635 
	C297.457855,418.847900 297.390839,414.909485 299.244507,411.121918 
	C301.490540,415.395813 303.102875,419.721527 304.785767,424.019653 
	C305.707397,426.373566 306.679810,428.751923 310.590881,428.881409 
M361.829254,427.371948 
	C363.998169,424.271545 360.837128,421.323059 361.576965,418.189728 
	C361.996155,416.414429 361.596680,414.251617 364.200775,414.176483 
	C366.310944,414.115631 368.223541,414.945740 368.949982,417.128418 
	C369.587891,419.045197 369.637177,421.101227 368.922913,423.027802 
	C368.144958,425.126282 367.994720,427.121307 370.244812,428.198517 
	C372.383728,429.222504 374.921539,429.567749 376.950317,428.178497 
	C378.927094,426.824860 377.587738,424.765137 377.525818,422.841248 
	C377.340973,417.099213 373.043427,412.086945 376.239075,405.518280 
	C379.196381,399.439484 375.293854,393.144470 369.513611,392.437958 
	C365.246582,391.916412 360.857452,392.085876 356.546844,392.346527 
	C354.029877,392.498688 351.917542,393.840637 352.945770,396.971863 
	C355.620209,405.116394 353.852264,413.436859 353.958435,421.672180 
	C353.983582,423.623322 351.597656,425.659943 353.844757,427.584808 
	C356.137482,429.548859 358.733643,429.265564 361.829254,427.371948 
M153.750610,412.434113 
	C153.739594,408.779755 153.830444,405.121521 153.692169,401.471985 
	C153.513672,396.761230 150.547134,393.021851 145.943298,392.521149 
	C141.511932,392.039185 136.980148,392.123444 132.520233,392.402496 
	C130.052750,392.556915 128.178223,393.850220 129.007095,397.081665 
	C131.293762,405.996307 131.185577,414.974792 129.059326,423.892853 
	C128.485229,426.300812 128.999542,428.231262 131.285950,428.536194 
	C136.869400,429.280884 142.604156,429.797119 148.056702,428.025299 
	C151.680984,426.847626 153.339981,423.620544 153.642090,419.875366 
	C153.815292,417.728119 153.720337,415.559235 153.750610,412.434113 
M245.162231,477.749207 
	C245.992538,477.809967 246.822128,477.909882 247.653275,477.925537 
	C257.906250,478.119141 261.627380,474.525024 261.671844,464.362427 
	C261.692230,459.698669 261.801941,455.029510 261.626434,450.372040 
	C261.382812,443.906952 256.789825,440.113342 249.414185,440.024597 
	C241.669785,439.931427 237.447052,443.242981 237.168808,450.068115 
	C236.931564,455.887878 237.169952,461.725555 237.103760,467.554199 
	C237.044952,472.733398 239.418289,476.070679 245.162231,477.749207 
M252.241364,396.509521 
	C248.208496,391.797241 242.326813,390.378387 236.030579,392.598755 
	C230.924408,394.399475 229.360565,397.155762 229.323380,404.534180 
	C229.299057,409.356995 229.203873,414.183716 229.353607,419.002045 
	C229.534164,424.811707 233.349945,428.732666 239.341721,429.576294 
	C245.743546,430.477631 252.135391,427.628754 252.982132,422.305145 
	C254.302353,414.004517 254.887680,405.518921 252.241364,396.509521 
M269.663879,473.597961 
	C273.529694,477.960846 279.547668,479.194977 285.543152,476.955963 
	C290.910797,474.951508 290.833832,470.466064 291.069489,465.833130 
	C291.428986,458.764496 289.473694,451.539368 292.524506,444.620117 
	C293.188995,443.113007 292.386932,441.592194 290.794067,440.927582 
	C288.563049,439.996735 286.207245,439.895294 284.033051,441.022186 
	C282.509399,441.811920 282.151703,443.299683 282.786713,444.900269 
	C285.792938,452.477386 283.765259,460.346771 284.077087,468.074280 
	C284.175201,470.505280 282.423859,472.108429 279.875732,472.095856 
	C277.552277,472.084381 275.869446,470.530518 275.934723,468.365936 
	C276.167328,460.654694 274.076569,452.794006 277.249664,445.251221 
	C277.877228,443.759491 278.048431,442.205902 276.443085,441.281586 
	C273.996674,439.873138 271.275482,439.958282 268.683594,440.708160 
	C267.043060,441.182739 266.275604,442.910248 266.875519,444.361816 
	C269.747742,451.311432 267.632751,458.522430 268.227997,465.578339 
	C268.436249,468.047211 267.945343,470.601776 269.663879,473.597961 
M284.200897,397.802155 
	C285.449249,396.231445 285.393951,394.782501 283.806396,393.466675 
	C282.089142,392.043365 280.128967,391.879028 278.177399,392.688141 
	C276.228149,393.496246 275.705933,395.149353 275.950867,397.207520 
	C276.819122,404.503296 276.240906,411.830414 276.322113,419.143707 
	C276.349884,421.645294 275.246063,423.384094 272.633575,423.611389 
	C270.085266,423.833160 268.190735,422.453308 268.163116,419.968109 
	C268.080475,412.526215 266.946259,405.000488 268.857758,397.672974 
	C269.389648,395.633942 269.019104,394.566925 267.592987,393.425079 
	C265.863953,392.040802 263.904633,391.871948 261.933624,392.535706 
	C260.123077,393.145416 259.323700,394.717438 259.676239,396.513123 
	C261.103302,403.781891 260.056671,411.110352 260.347290,418.403503 
	C260.641388,425.783234 264.637512,429.710358 272.020477,429.704193 
	C279.554413,429.697906 283.510132,425.923218 283.654266,418.488129 
	C283.783203,411.836823 283.820831,405.183746 284.200897,397.802155 
M98.869225,419.542389 
	C96.383278,424.090179 92.666512,424.915405 90.181625,421.138000 
	C88.785408,419.015533 87.444321,417.989746 84.990555,418.342834 
	C83.457771,418.563446 82.609062,419.358398 82.427559,420.911530 
	C82.127136,423.482361 83.075447,425.474823 85.163216,426.943665 
	C89.585251,430.054718 94.370476,430.533600 99.427658,428.836578 
	C104.448395,427.151855 106.267921,423.203979 106.342331,418.363281 
	C106.412621,413.791779 104.397995,410.341187 99.872551,408.713593 
	C97.679077,407.924683 95.475052,407.163696 93.294884,406.339600 
	C91.239395,405.562622 89.913597,404.135864 90.012779,401.839783 
	C90.101685,399.781616 91.285812,398.420685 93.291351,397.951843 
	C95.498909,397.435791 97.330879,398.091339 98.203171,400.288788 
	C99.505600,403.569733 102.202492,403.457611 104.341911,402.145935 
	C106.718246,400.689026 106.143074,397.899109 104.764275,395.924652 
	C101.848816,391.749756 97.290321,391.179443 92.694801,391.460266 
	C88.690872,391.704865 85.270065,393.253143 83.510376,397.284210 
	C80.690155,403.744659 83.244484,409.713318 89.916962,412.639832 
	C93.243187,414.098724 97.828926,413.879822 98.869225,419.542389 
M194.214661,470.542053 
	C190.813919,473.185394 187.975861,472.643860 186.193497,468.747009 
	C185.209045,466.594635 183.885361,466.195221 181.843079,466.713043 
	C179.563019,467.291168 179.304962,468.985260 179.252747,470.939880 
	C179.173615,473.902039 181.012589,475.467102 183.303574,476.674133 
	C185.900436,478.042328 188.760666,478.009857 191.588928,477.931671 
	C198.082123,477.752136 201.644577,475.141937 202.593323,469.950745 
	C203.790176,463.402008 201.687653,459.568665 195.410156,456.984650 
	C193.416046,456.163818 191.358307,455.498962 189.349106,454.713043 
	C187.160767,453.856995 186.440765,452.150391 186.708405,449.918396 
	C186.906494,448.266235 187.775955,447.135406 189.379852,446.683350 
	C191.477753,446.091980 193.614197,446.290894 194.597931,448.372406 
	C196.003418,451.346283 198.100418,452.998779 200.676346,450.613434 
	C203.381790,448.108246 202.023727,444.995056 199.640076,442.785400 
	C196.613632,439.979889 192.731674,439.830963 188.842545,440.059296 
	C183.973770,440.345062 180.644135,442.665253 179.512207,447.519653 
	C178.017181,453.931274 179.726761,458.024536 184.912430,460.532379 
	C186.693054,461.393524 188.633667,461.949554 190.537399,462.525146 
	C194.319077,463.668579 196.271515,465.788635 194.214661,470.542053 
M181.951462,399.297272 
	C183.100403,394.247253 182.180695,392.550842 177.454636,392.243530 
	C173.144028,391.963135 168.789932,392.065308 164.470810,392.295441 
	C161.229324,392.468140 159.965271,394.243134 160.423294,397.711060 
	C161.577789,406.451965 162.013870,415.240417 160.112106,423.955872 
	C159.470749,426.895081 160.562637,428.679993 163.439865,428.809052 
	C168.592834,429.040100 173.762466,428.986938 178.923233,428.915314 
	C181.018585,428.886230 182.316757,427.602264 182.569916,425.495361 
	C182.771027,423.821564 182.829239,422.103699 181.140900,421.020599 
	C179.377930,419.889618 178.075989,420.796051 176.693192,421.937042 
	C174.558060,423.698792 171.733887,423.997620 169.668365,422.666840 
	C167.225494,421.092865 168.817337,418.053467 168.711823,415.667938 
	C168.581985,412.732391 170.916748,412.889679 172.913269,412.683197 
	C174.851776,412.482727 176.682144,411.912415 176.650375,409.523499 
	C176.619812,407.225708 174.744797,407.148590 173.049210,406.996613 
	C171.086746,406.820740 168.776123,407.083282 168.316818,404.395172 
	C167.955841,402.282440 167.487915,399.744843 169.591385,398.430115 
	C171.616425,397.164459 174.111694,397.366455 176.236023,398.716339 
	C177.888687,399.766510 179.305954,401.533691 181.951462,399.297272 
M215.654633,453.718933 
	C215.793427,450.965881 215.029373,447.772003 218.552979,446.469238 
	C221.662094,445.319702 223.382660,447.060852 224.999237,449.573944 
	C226.234848,451.494812 228.657349,451.461548 230.417175,450.441528 
	C232.570007,449.193756 231.951981,446.899719 231.127670,445.089905 
	C229.422531,441.346161 222.197937,439.096283 216.360291,440.299896 
	C211.202911,441.363190 208.387863,444.428345 208.251038,449.551697 
	C208.099945,455.207947 208.305786,460.874054 208.137405,466.529388 
	C207.989929,471.482941 209.222443,475.816467 214.363480,477.200500 
	C219.705521,478.638641 225.321625,479.124786 229.820175,474.633484 
	C231.919266,472.537720 232.867264,469.799377 230.441483,467.612732 
	C227.869217,465.293915 225.882324,467.222687 224.486786,469.621368 
	C223.101166,472.002930 221.029510,472.722534 218.536285,471.907806 
	C216.056763,471.097565 215.656555,468.958954 215.668579,466.651520 
	C215.689407,462.656433 215.655289,458.661011 215.654633,453.718933 
M217.859085,401.714691 
	C219.717438,403.084381 221.714890,403.253143 223.163971,401.410461 
	C224.357346,399.892914 224.114502,397.923248 223.149185,396.215729 
	C221.224716,392.811646 213.910339,390.733429 208.580551,392.029877 
	C203.149109,393.351044 200.405121,396.437286 200.278580,401.724518 
	C200.155212,406.878296 200.402298,412.043488 200.194916,417.191925 
	C199.989685,422.286591 201.149124,426.489349 206.309967,428.546814 
	C211.862213,430.760406 217.118698,430.082550 221.779144,426.312531 
	C224.126617,424.413605 225.031296,421.630035 222.724472,419.383331 
	C220.376205,417.096283 218.234741,418.458038 216.761505,421.094513 
	C215.384476,423.558868 213.021713,423.777771 210.657303,423.099457 
	C208.174881,422.387299 207.658554,420.276001 207.670853,417.938751 
	C207.696228,413.114960 207.697723,408.290558 207.647415,403.467041 
	C207.619156,400.759033 208.188950,398.399414 211.157532,397.615723 
	C214.275085,396.792694 216.246384,398.322723 217.859085,401.714691 
M322.846802,445.259308 
	C322.908630,443.344452 322.764557,441.098328 320.578094,440.819397 
	C313.657867,439.936707 306.635193,439.631073 299.771301,440.934906 
	C296.653503,441.527161 296.633881,444.747192 297.753113,447.112122 
	C298.976349,449.696960 300.760345,448.581940 302.606384,447.223846 
	C305.116516,445.377045 306.352478,446.851501 306.293335,449.415680 
	C306.117737,457.031189 307.188812,464.686737 305.607605,472.260193 
	C305.221985,474.107086 304.954437,476.039062 307.077271,477.012268 
	C309.115326,477.946686 311.318237,478.062378 313.341522,476.957397 
	C315.359131,475.855530 315.080048,473.932922 314.653595,472.103729 
	C312.928284,464.703278 314.071686,457.202698 313.898651,449.751648 
	C313.831451,446.855865 314.934174,444.936035 318.067139,447.529785 
	C320.462402,449.512787 321.941437,448.842865 322.846802,445.259308 
M390.663025,427.045380 
	C392.808014,429.963104 395.798309,429.248474 398.320343,428.243805 
	C400.754120,427.274292 400.325104,424.780731 399.816315,422.570923 
	C399.596191,421.614716 399.731537,420.582611 399.606750,419.597504 
	C398.555664,411.299713 403.842529,405.171234 406.906677,398.289368 
	C407.572845,396.793121 408.978577,395.317108 407.315308,393.820435 
	C405.620270,392.295258 403.429718,391.804260 401.255859,392.625885 
	C399.357483,393.343414 398.432098,394.716553 399.075256,396.966919 
	C400.057373,400.403503 398.411469,402.886780 395.508667,405.573090 
	C393.942749,402.465729 391.451965,400.370483 392.474030,396.717529 
	C393.156616,394.277740 391.709076,392.899292 389.499847,392.416779 
	C387.519318,391.984222 385.481445,391.935883 384.066650,393.847595 
	C382.674164,395.729187 383.908905,397.226776 384.756165,398.861267 
	C389.216553,407.466064 395.189178,415.777069 390.663025,427.045380 
M340.145691,392.288544 
	C335.324738,392.274902 330.503693,392.238922 325.682892,392.258881 
	C323.830566,392.266541 322.488495,393.057434 322.075073,395.017120 
	C321.763062,396.495941 321.316132,398.096405 322.680389,399.201752 
	C324.117096,400.365784 325.312439,399.408356 326.671753,398.554779 
	C330.248688,396.308746 331.179260,398.784607 331.115204,401.628906 
	C330.951111,408.916534 331.982239,416.244385 330.462860,423.491638 
	C330.039307,425.511871 330.759003,427.204315 332.467773,428.208008 
	C334.116638,429.176575 336.032349,429.127533 337.745117,428.266998 
	C339.240479,427.515717 339.836029,426.064850 339.467560,424.465393 
	C337.800598,417.230103 338.988831,409.897461 338.674377,402.618103 
	C338.602020,400.943420 337.965637,398.868866 339.896118,397.879456 
	C341.061371,397.637573 341.748352,398.037109 342.402863,398.610809 
	C344.124481,400.120117 345.788361,400.060883 346.977142,398.049988 
	C348.235535,395.921265 347.387115,394.235168 345.408020,393.019196 
	C344.060120,392.190979 342.539093,392.291504 340.145691,392.288544 
M114.442841,392.504700 
	C112.073563,393.524841 111.760628,394.923340 112.287888,397.613342 
	C113.975792,406.224670 114.078049,414.966949 112.249695,423.605377 
	C111.872063,425.389618 111.484482,427.070068 113.116982,428.036957 
	C115.502419,429.449768 118.298843,429.471558 120.752998,428.318726 
	C122.454994,427.519135 122.197113,425.639130 121.857780,423.901123 
	C120.082176,414.806824 119.484497,405.707489 122.273605,396.681244 
	C123.042397,394.193237 122.064796,392.779877 119.655106,392.408173 
	C118.201500,392.183929 116.686760,392.356110 114.442841,392.504700 
z"/>
<path fill="#000000" opacity="1.000000" stroke="none" 
	d="
M272.876251,232.101959 
	C279.347504,241.770447 286.575287,250.474350 288.901367,262.119812 
	C290.725311,271.251465 289.582336,279.601532 285.726501,287.827698 
	C284.768341,289.871857 283.540619,291.642761 281.095398,291.925751 
	C277.128296,292.384918 273.155365,292.822754 269.173523,293.114105 
	C266.859558,293.283447 264.548523,292.383453 266.194305,289.741638 
	C270.994629,282.035980 269.514679,272.726654 272.815552,264.855743 
	C277.216858,254.360916 273.756470,245.197937 269.798950,235.939728 
	C263.890320,222.117081 263.777954,222.165115 246.772659,221.686447 
	C248.326691,228.928955 250.767807,235.701843 255.790207,240.761200 
	C269.371887,254.442856 265.728943,269.116638 258.813629,284.108643 
	C257.327942,287.329529 255.127121,287.668793 252.475266,285.439758 
	C249.291687,282.763824 245.970047,280.222412 243.016113,277.310394 
	C239.097122,273.447083 235.429108,269.376770 230.225616,267.105316 
	C228.169174,266.207581 226.197205,264.648529 227.449432,262.077423 
	C229.059464,258.771606 228.356781,255.603394 227.752960,252.326431 
	C224.918182,236.942062 228.405075,222.224655 232.541687,207.585327 
	C233.932983,202.661575 235.410477,197.762161 236.861023,192.809128 
	C239.184937,193.445206 238.675034,194.920975 238.538864,196.125183 
	C238.314743,198.107330 238.031891,200.092270 237.612671,202.041397 
	C235.207596,213.223862 235.190979,213.222397 246.243240,216.130203 
	C249.300949,216.934662 252.352325,217.620651 255.549271,217.842911 
	C260.141663,218.162155 262.687347,216.843750 261.917236,211.732498 
	C261.749146,210.616562 261.583618,209.399002 263.093414,207.372208 
	C266.935272,215.677002 267.856720,224.593811 272.876251,232.101959 
z"/>
<path fill="#000000" opacity="1.000000" stroke="none" 
	d="
M190.270935,310.325256 
	C193.243607,303.376831 197.000275,298.069946 204.455597,295.566711 
	C211.088608,293.339569 217.252151,289.714264 224.137665,287.333466 
	C221.299728,293.292267 218.902008,299.417877 213.528198,303.187256 
	C209.063934,306.318604 206.329086,310.448181 204.166504,315.180084 
	C201.507416,320.998352 197.755890,325.329285 191.314957,327.523834 
	C183.531464,330.175903 178.105621,336.303101 172.743561,342.260193 
	C171.516327,343.623657 170.526703,345.534363 168.726074,345.862122 
	C160.376450,347.381836 152.615463,350.727661 144.867981,353.787598 
	C143.218826,351.547791 144.677933,350.176178 145.362076,348.842651 
	C151.061432,337.733368 155.954987,326.263611 160.740112,314.745361 
	C162.744568,309.920441 166.639816,307.469574 171.504593,305.415527 
	C174.272430,317.106873 165.173904,323.838593 160.946991,332.362305 
	C161.302612,332.733765 161.658218,333.105225 162.013824,333.476685 
	C167.228928,330.337616 172.247757,326.789398 177.711472,324.168640 
	C183.806335,321.245117 188.018127,317.041534 190.270935,310.325256 
z"/>
<path fill="#000000" opacity="1.000000" stroke="none" 
	d="
M186.116425,309.936401 
	C183.964935,313.699402 181.350082,316.255829 177.191162,316.815674 
	C174.021698,302.657379 189.049194,273.820679 205.349762,263.201782 
	C207.889130,267.837463 209.759720,272.671967 211.178421,277.692871 
	C211.574799,279.095642 210.743820,280.323120 209.834045,281.291077 
	C207.907150,283.341278 206.212341,286.120117 203.806870,287.121307 
	C193.593826,291.371887 190.145309,300.585724 186.116425,309.936401 
z"/>
<path fill="#000000" opacity="1.000000" stroke="none" 
	d="
M196.396912,331.359314 
	C201.659149,327.698334 206.227921,323.848511 208.762024,318.158600 
	C211.324142,312.405823 215.359024,308.425415 221.367981,306.185822 
	C225.601013,304.608154 229.276291,301.619598 234.795364,300.308380 
	C232.989792,306.105621 230.438400,310.885925 231.390015,316.369995 
	C231.678574,318.032928 229.587509,318.688995 228.205856,319.060791 
	C222.708908,320.540192 218.906693,324.033112 216.124634,328.810089 
	C214.162430,332.179352 211.159683,333.944672 207.510696,335.107025 
	C202.129272,336.821259 196.875168,338.931366 191.525360,340.750977 
	C189.722885,341.364014 188.008392,342.704529 184.938919,341.657715 
	C188.926102,338.067566 192.524261,334.827698 196.396912,331.359314 
z"/>
<path fill="#000000" opacity="1.000000" stroke="none" 
	d="
M208.706451,227.039948 
	C209.159958,220.096924 208.302673,213.165695 210.449646,207.341995 
	C212.273483,202.394791 211.682220,198.606186 209.640961,193.965378 
	C212.573761,193.845459 213.302979,195.667740 214.188919,197.060898 
	C218.562836,203.938950 220.032043,211.514938 218.825989,219.491394 
	C218.116760,224.182068 218.135971,228.579239 219.656845,233.187851 
	C222.421036,241.563995 221.590775,249.904083 217.907074,257.916382 
	C216.973312,259.947418 215.860565,261.933136 213.021103,260.393890 
	C210.726959,259.150238 208.490219,257.946747 210.205795,254.686554 
	C210.934555,253.301666 210.762253,251.760193 210.398743,250.294571 
	C208.540146,242.800919 208.427048,235.181900 208.706451,227.039948 
z"/>
<path fill="#000000" opacity="1.000000" stroke="none" 
	d="
M298.707428,306.138489 
	C297.510895,305.941681 296.703461,305.699890 295.880310,305.619385 
	C293.769684,305.412903 291.256775,304.592560 290.061829,307.038330 
	C289.003815,309.204041 291.036743,310.732666 292.230469,312.220947 
	C296.603851,317.673523 300.168396,323.618195 303.820160,329.883606 
	C296.276703,329.162689 272.341461,306.046082 269.369476,297.052582 
	C279.415100,292.044312 293.773407,295.084442 300.461060,303.574799 
	C302.115173,305.674805 301.041626,306.095520 298.707428,306.138489 
z"/>
<path fill="#000000" opacity="1.000000" stroke="none" 
	d="
M328.247192,318.785767 
	C335.890472,315.237396 343.232574,311.858826 351.012756,308.278656 
	C352.186493,314.054932 345.968201,318.353699 349.495880,323.507965 
	C352.246796,327.527252 355.081970,331.488892 358.426971,336.256165 
	C354.220428,335.995667 352.271637,333.760742 349.903839,332.433807 
	C348.427795,331.606689 346.908905,330.606750 345.327789,331.973602 
	C344.007233,333.115204 344.433502,334.670532 344.755737,336.172241 
	C345.299622,338.706970 346.828217,341.096649 346.000763,344.151917 
	C343.490662,343.652985 342.630463,341.462524 341.355835,339.934296 
	C336.983002,334.691437 332.739075,329.339294 328.525085,323.966827 
	C327.373352,322.498444 325.398132,320.934296 328.247192,318.785767 
z"/>
<path fill="#000000" opacity="1.000000" stroke="none" 
	d="
M133.296936,335.782532 
	C132.357574,341.340515 126.980415,343.277191 125.007607,347.706207 
	C120.130577,358.655548 108.955894,356.943939 100.156242,360.267334 
	C101.069626,355.308044 105.158081,353.056641 108.519287,351.283844 
	C116.936737,346.844055 121.277901,339.594696 124.917099,331.446167 
	C126.731094,327.384399 130.471924,325.784393 134.591492,324.225739 
	C136.061798,328.614166 132.143906,331.683563 133.296936,335.782532 
z"/>
<path fill="#000000" opacity="1.000000" stroke="none" 
	d="
M226.360016,343.697510 
	C226.175629,343.161926 226.110703,342.657104 226.287399,342.549683 
	C239.181335,334.710144 251.673141,326.063538 266.582123,322.226135 
	C267.374939,322.022064 268.221649,321.942017 269.040375,321.957520 
	C269.494354,321.966156 269.942322,322.292633 271.173492,322.793121 
	C265.666473,328.654297 260.673523,334.641113 253.035034,336.985535 
	C244.331833,339.656769 235.415771,341.634583 226.360016,343.697510 
z"/>
<path fill="#000000" opacity="1.000000" stroke="none" 
	d="
M189.334839,186.607025 
	C185.450806,182.466751 183.415176,178.097137 184.452042,172.297607 
	C189.081635,175.231247 194.604477,184.803604 195.252991,190.627869 
	C192.636612,190.320572 191.462509,188.035172 189.334839,186.607025 
z"/>
<path fill="#000000" opacity="1.000000" stroke="none" 
	d="
M139.727402,338.737305 
	C142.092209,336.419647 144.072403,334.123352 147.362152,333.895294 
	C147.360260,340.320404 142.640030,345.121735 133.802322,347.491302 
	C134.525040,343.686676 137.587753,341.712097 139.727402,338.737305 
z"/>
<path fill="#000000" opacity="1.000000" stroke="none" 
	d="
M263.387054,113.936325 
	C265.868195,109.198669 269.455505,107.307426 274.271149,108.581955 
	C278.593994,109.726036 280.899902,112.852249 281.247375,117.264084 
	C281.601990,121.766342 279.545532,124.958084 275.391632,126.671097 
	C272.026855,128.058685 268.855743,127.477524 266.088348,125.137733 
	C262.636475,122.219254 261.999054,118.496208 263.387054,113.936325 
z"/>
<path fill="#000000" opacity="1.000000" stroke="none" 
	d="
M369.211731,400.799744 
	C369.327606,402.496277 369.564392,403.854095 369.317902,405.117706 
	C368.811554,407.713287 366.869904,408.419800 364.468658,408.251282 
	C362.009888,408.078796 361.531464,406.337341 361.688263,404.396088 
	C361.863251,402.230865 360.598083,399.417053 363.321869,398.173981 
	C365.690033,397.093201 367.848907,397.944275 369.211731,400.799744 
z"/>
<path fill="#000000" opacity="1.000000" stroke="none" 
	d="
M138.192688,422.069000 
	C137.894791,415.076965 137.787537,408.461823 137.693604,401.846497 
	C137.666046,399.906738 137.936279,398.132660 140.381775,397.857666 
	C142.710037,397.595825 145.311127,398.087830 145.708572,400.421783 
	C146.873657,407.263367 147.292480,414.319855 145.503448,421.035339 
	C144.676025,424.141327 141.230453,424.168396 138.192688,422.069000 
z"/>
<path fill="#000000" opacity="1.000000" stroke="none" 
	d="
M254.223404,457.064636 
	C254.202835,460.704834 254.289581,463.866089 254.129700,467.014801 
	C253.975418,470.053040 252.422791,472.186676 249.186111,472.086578 
	C245.963684,471.987000 244.550430,469.868469 244.600601,466.741119 
	C244.683029,461.604889 243.804733,456.495544 244.528854,451.322632 
	C244.955658,448.273743 245.997971,446.060608 249.247589,446.033264 
	C252.751221,446.003784 254.161270,448.308350 254.200775,451.597229 
	C254.220734,453.258087 254.216263,454.919220 254.223404,457.064636 
z"/>
<path fill="#000000" opacity="1.000000" stroke="none" 
	d="
M236.806885,402.543335 
	C237.268799,399.006134 238.913132,397.142975 242.169098,397.464996 
	C245.577621,397.802124 246.310837,400.285797 246.295120,403.235687 
	C246.269394,408.064270 246.271866,412.893341 246.307922,417.721832 
	C246.331894,420.933563 245.341583,423.530762 241.709518,423.575378 
	C237.793137,423.623474 236.773697,420.832123 236.768387,417.471161 
	C236.760757,412.642517 236.773315,407.813873 236.806885,402.543335 
z"/>
</svg>